                  WARNING!!! RUSSIAN AUDIO ONLY!!!!!!


An exploration of how the actions of individual lives impact one another in the past, present and future, as one soul is shaped from a killer into a hero, and an act of kindness ripples across centuries to inspire a revolution. 

 Directors: Tom Tykwer, Andy Wachowski 
 Writers: David Mitchell (novel), Lana Wachowski (written for the screen by)
 Stars: Tom Hanks, Halle Berry and Hugh Grant 


DVDInfo
Title: Cloud.Atlas.(2012).DVD5
Size: 4.37 Gb ( 4┬á584┬á546,00 KBytes ) - DVD-5
Enabled regions: 1, 2, 3, 4, 5, 6, 7, 8

VTS_01 :
  Play Length: 00:00:00
  Video: PAL 4:3 (720x576) VBR
  Audio:
      Not specified (Dolby AC3, 2 ch)

VTS_02 :
  Play Length: 00:00:00
  Video: PAL 16:9 (720x576) VBR, Auto Letterboxed
  Audio:
      Not specified (Dolby AC3, 6 ch)

VTS_03 :
  Play Length: 00:00:00
  Video: PAL 16:9 (720x576) VBR, Auto Letterboxed
  Audio:
      Russian (Dolby AC3, 2 ch)
      Russian (Dolby AC3, 2 ch)

VTS_04 :
  Play Length: 02:45:05
  Video: PAL 16:9 (720x576) VBR, Auto Letterboxed
  Audio:
      Russian (Dolby AC3, 6 ch)

VTS_05 :
  Play Length: 00:00:00
  Video: PAL 16:9 (720x576) VBR, Auto Letterboxed
  Audio:
      Russian (Dolby AC3, 2 ch)
      Russian (Dolby AC3, 2 ch)

* Menus Information *

VIDEO_TS Menu
Video:
      NTSC 4:3 (720x480) VBR
      Auto Pan&Scan, Auto Letterboxed
English Language Unit :
      Title Menu

VTS_01 Menu
Video:
      PAL 16:9 (720x576) VBR
      Auto Letterboxed
Audio:
      Not specified (Dolby AC3, 6 ch)
English Language Unit :
      Root Menu
      Chapter (PTT) Menu

VTS_02 Menu
Video:
      NTSC 4:3 (720x480) VBR
      Auto Pan&Scan, Auto Letterboxed
English Language Unit :
      Root Menu
      Chapter (PTT) Menu

VTS_03 Menu
Video:
      NTSC 4:3 (720x480) VBR
      Auto Pan&Scan, Auto Letterboxed
English Language Unit :
      Root Menu
      Chapter (PTT) Menu

VTS_04 Menu
Video:
      NTSC 4:3 (720x480) VBR
      Auto Pan&Scan, Auto Letterboxed
English Language Unit :
      Root Menu
      Chapter (PTT) Menu

VTS_05 Menu
Video:
      NTSC 4:3 (720x480) VBR
      Auto Pan&Scan, Auto Letterboxed
English Language Unit :
      Root Menu
      Chapter (PTT) Menu

MediaInfo 0.7.61
General
Complete name                            : K:tempCloud.Atlas.(2012).DVD5VIDEO_TSVTS_04_1.VOB
Format                                   : MPEG-PS
File size                                : 1 024 MiB
Duration                                 : 35mn 57s
Overall bit rate mode                    : Variable
Overall bit rate                         : 3 981 Kbps

Video
ID                                       : 224 (0xE0)
Format                                   : MPEG Video
Format version                           : Version 2
Format profile                           : Main@Main
Format settings, BVOP                    : Yes
Format settings, Matrix                  : Custom
Format settings, GOP                     : Variable
Duration                                 : 35mn 57s
Bit rate mode                            : Variable
Bit rate                                 : 3 454 Kbps
Maximum bit rate                         : 6 725 Kbps
Width                                    : 720 pixels
Height                                   : 576 pixels
Display aspect ratio                     : 16:9
Frame rate                               : 25.000 fps
Standard                                 : PAL
Color space                              : YUV
Chroma subsampling                       : 4:2:0
Bit depth                                : 8 bits
Scan type                                : Interlaced
Scan order                               : Top Field First
Compression mode                         : Lossy
Bits/(Pixel*Frame)                       : 0.333
Stream size                              : 888 MiB (87%)

Audio
ID                                       : 189 (0xBD)-128 (0x80)
Format                                   : AC-3
Format/Info                              : Audio Coding 3
Mode extension                           : CM (complete main)
Format settings, Endianness              : Big
Muxing mode                              : DVD-Video
Duration                                 : 35mn 57s
Bit rate mode                            : Constant
Bit rate                                 : 448 Kbps
Channel(s)                               : 6 channels
Channel positions                        : Front: L C R, Side: L R, LFE
Sampling rate                            : 48.0 KHz
Bit depth                                : 16 bits
Compression mode                         : Lossy
Stream size                              : 115 MiB (11%)

Menu
 
http://img845.imageshack.us/img845/536/vlcsnap2012121308h06m19.png 
http://img839.imageshack.us/img839/3965/vlcsnap2012121308h02m35.png 
http://img213.imageshack.us/img213/8544/vlcsnap2012121308h03m18.png 
http://img821.imageshack.us/img821/9788/vlcsnap2012121308h05m11.png 
http://img607.imageshack.us/img607/5307/vlcsnap2012121308h06m58.png 
http://img267.imageshack.us/img267/9793/vlcsnap2012121308h03m12.png 
http://img577.imageshack.us/img577/9607/vlcsnap2012121308h05m47.png 
http://img831.imageshack.us/img831/9788/vlcsnap2012121308h05m11.png

